<svg width="69" height="34" viewBox="0 0 69 34" fill="none" xmlns="http://www.w3.org/2000/svg">
<g clip-path="url(#clip0_7_5647)">
<path d="M0.642578 25.0714L7.6228 14.2099H1.46948C1.41733 13.897 1.39498 13.5544 1.39498 13.1744C1.39498 12.8094 1.41733 12.4742 1.46948 12.1688H11.4295L11.5562 12.504L4.52379 23.3878H11.1166C11.1688 23.7305 11.1911 24.088 11.1911 24.4456C11.1911 24.7883 11.1688 25.1161 11.1166 25.4289H0.76922L0.642578 25.0714Z" fill="#4C4C4D"/>
<path d="M20.7862 16.6908C20.7862 15.6702 20.5255 14.9699 20.0114 14.5677C19.4974 14.1728 18.745 13.9717 17.7617 13.9717C17.1583 13.9717 16.5921 14.0164 16.0706 14.1132C15.5417 14.2101 15.0352 14.3293 14.5286 14.4857C14.2008 13.9195 14.0369 13.2342 14.0369 12.4445C14.6254 12.2583 15.2661 12.1093 15.9738 12.005C16.6815 11.9007 17.3594 11.8486 18.015 11.8486C19.7358 11.8486 21.0469 12.2434 21.9483 13.0256C22.8423 13.8078 23.2967 15.0668 23.2967 16.7876V25.0864C22.6933 25.2205 21.9632 25.3695 21.0991 25.511C20.2349 25.66 19.3559 25.7271 18.4619 25.7271C17.6201 25.7271 16.8528 25.6526 16.1749 25.4961C15.497 25.3397 14.916 25.0939 14.4392 24.7437C13.9624 24.4011 13.5974 23.9615 13.3367 23.4252C13.0759 22.8888 12.9493 22.2407 12.9493 21.4883C12.9493 20.7508 13.0983 20.0952 13.4037 19.5365C13.7017 18.9778 14.1114 18.5085 14.6329 18.1434C15.1469 17.771 15.7429 17.4953 16.4208 17.3165C17.0912 17.1377 17.7989 17.0409 18.5439 17.0409C19.0952 17.0409 19.5496 17.0558 19.8997 17.0781C20.2498 17.1005 20.5478 17.1377 20.7937 17.1675V16.6908H20.7862ZM20.7862 19.2013C20.5255 19.164 20.1977 19.1342 19.8029 19.097C19.408 19.0597 19.0728 19.0448 18.7972 19.0448C17.7244 19.0448 16.9124 19.246 16.3537 19.6408C15.795 20.0356 15.5119 20.639 15.5119 21.451C15.5119 21.9651 15.6088 22.3748 15.795 22.6653C15.9812 22.9558 16.2196 23.1793 16.5027 23.3358C16.7858 23.4922 17.0987 23.5891 17.4488 23.6189C17.7915 23.6561 18.1193 23.671 18.4321 23.671C18.827 23.671 19.2367 23.6487 19.6613 23.604C20.0859 23.5593 20.4584 23.4997 20.7862 23.4103V19.2013Z" fill="#4C4C4D"/>
<path d="M26.0902 12.1693C26.2616 12.1321 26.4403 12.1097 26.6191 12.0948C26.7979 12.0799 26.9842 12.0725 27.1779 12.0725C27.3492 12.0725 27.528 12.0799 27.7217 12.0948C27.9079 12.1097 28.0941 12.1395 28.2655 12.1693C28.2804 12.2066 28.3027 12.3109 28.3325 12.4896C28.3549 12.6684 28.3847 12.8621 28.407 13.0707C28.4294 13.2793 28.4592 13.473 28.4815 13.6667C28.5039 13.8604 28.5188 13.9796 28.5188 14.0317C28.6901 13.7561 28.8987 13.4879 29.1371 13.2272C29.3755 12.9664 29.666 12.7355 30.0012 12.5269C30.3365 12.3183 30.7164 12.1544 31.141 12.0352C31.5656 11.916 32.035 11.8564 32.549 11.8564C33.3237 11.8564 34.0463 11.9831 34.7093 12.2438C35.3724 12.5045 35.9385 12.8994 36.4153 13.4432C36.8921 13.987 37.2571 14.6798 37.5253 15.5142C37.7935 16.3485 37.9275 17.3393 37.9275 18.4791C37.9275 20.7586 37.3092 22.5391 36.0801 23.8204C34.8434 25.1017 33.1002 25.7498 30.843 25.7498C30.4631 25.7498 30.0757 25.7275 29.6809 25.6754C29.2861 25.6232 28.9359 25.5562 28.6454 25.4668V31.5456C28.4368 31.5828 28.2208 31.6052 27.9824 31.6201C27.7515 31.635 27.5354 31.6424 27.3492 31.6424C27.163 31.6424 26.9469 31.635 26.716 31.6201C26.485 31.6052 26.269 31.5754 26.0828 31.5456V12.1693H26.0902ZM28.6529 23.2617C28.9806 23.3809 29.3159 23.4703 29.6586 23.5224C30.0012 23.5746 30.4482 23.5969 31.0069 23.5969C31.6252 23.5969 32.1988 23.5001 32.7129 23.2989C33.2269 23.0978 33.6739 22.7924 34.0463 22.3826C34.4188 21.9655 34.7093 21.444 34.9254 20.8182C35.1414 20.1925 35.2457 19.4401 35.2457 18.5834C35.2457 17.2052 34.9924 16.1101 34.4859 15.2981C33.9793 14.4861 33.1449 14.0838 31.9903 14.0838C31.5582 14.0838 31.1485 14.1583 30.7462 14.3148C30.3514 14.4712 29.9938 14.7022 29.6884 15.015C29.3755 15.3279 29.1296 15.7153 28.9359 16.1921C28.7423 16.6688 28.6529 17.2276 28.6529 17.8831V23.2617Z" fill="#4C4C4D"/>
<path d="M41.1159 14.1801H39.4323C39.3951 14.0386 39.3727 13.8821 39.3578 13.7034C39.343 13.5246 39.3355 13.3458 39.3355 13.1744C39.3355 13.0031 39.343 12.8243 39.3578 12.6455C39.3727 12.4667 39.4025 12.3028 39.4323 12.1688H43.6264V25.4364C43.4402 25.4736 43.2242 25.496 42.9932 25.5109C42.7623 25.5258 42.5463 25.5332 42.36 25.5332C42.1887 25.5332 41.9875 25.5258 41.7491 25.5109C41.5182 25.496 41.3022 25.4662 41.1159 25.4364V14.1801Z" fill="#4C4C4D"/>
<path d="M49.1316 19.4324C49.1689 20.8776 49.5414 21.9429 50.2565 22.6134C50.9717 23.2838 52.0295 23.619 53.4226 23.619C54.6443 23.619 55.8139 23.403 56.9164 22.9709C57.058 23.2317 57.1697 23.5445 57.2516 23.917C57.341 24.2895 57.3857 24.6545 57.4081 25.0196C56.8419 25.2579 56.2162 25.4442 55.5308 25.5634C54.8529 25.6826 54.093 25.7422 53.2661 25.7422C52.0593 25.7422 51.0238 25.5708 50.1597 25.2356C49.2955 24.9004 48.5878 24.4236 48.0291 23.8127C47.4704 23.2019 47.0607 22.4793 46.7999 21.6375C46.5392 20.8031 46.4126 19.8868 46.4126 18.8811C46.4126 17.8978 46.5392 16.9815 46.785 16.1248C47.0309 15.2681 47.4183 14.5306 47.9323 13.8974C48.4463 13.2716 49.1018 12.765 49.884 12.4C50.6663 12.0275 51.5974 11.8413 52.6627 11.8413C53.579 11.8413 54.3761 11.9977 55.0689 12.3106C55.7617 12.6235 56.3354 13.0481 56.8047 13.5919C57.2665 14.1358 57.6241 14.7839 57.8625 15.5288C58.1009 16.2812 58.2275 17.0932 58.2275 17.9723C58.2275 18.2107 58.2201 18.4714 58.1977 18.7321C58.1828 19.0003 58.1605 19.2313 58.1456 19.4175H49.1316V19.4324ZM55.7021 17.5179C55.7021 17.0336 55.6351 16.5718 55.5085 16.1322C55.3818 15.6927 55.1881 15.3128 54.9423 14.985C54.689 14.6572 54.3761 14.3965 53.9887 14.1954C53.6014 13.9942 53.1395 13.8974 52.6031 13.8974C51.5527 13.8974 50.7482 14.2177 50.182 14.8509C49.6233 15.4916 49.2806 16.3781 49.1614 17.5179H55.7021Z" fill="#4C4C4D"/>
<path d="M61.0584 12.1688C61.2447 12.1315 61.4309 12.1092 61.6022 12.0943C61.7736 12.0794 61.9524 12.0719 62.146 12.0719C62.3323 12.0719 62.526 12.0794 62.7122 12.0943C62.8985 12.1092 63.0772 12.139 63.2262 12.1688C63.2784 12.4295 63.3305 12.7647 63.3827 13.1893C63.4348 13.614 63.4572 13.9715 63.4572 14.2621C63.8222 13.6736 64.299 13.167 64.8949 12.7349C65.4909 12.3028 66.2507 12.0868 67.1819 12.0868C67.3235 12.0868 67.465 12.0943 67.6066 12.1017C67.7556 12.1092 67.8748 12.1241 67.979 12.139C68.0163 12.2954 68.0386 12.4593 68.0535 12.6306C68.0684 12.802 68.0759 12.9808 68.0759 13.1744C68.0759 13.383 68.061 13.5991 68.0386 13.8226C68.0163 14.046 67.979 14.2621 67.9492 14.4707C67.8077 14.4334 67.6662 14.4185 67.5246 14.4185C67.3756 14.4185 67.2639 14.4185 67.1745 14.4185C66.7126 14.4185 66.2656 14.4856 65.841 14.6122C65.4164 14.7388 65.0365 14.9698 64.7012 15.2976C64.366 15.6253 64.0978 16.0723 63.8967 16.6459C63.6956 17.2121 63.5987 17.9496 63.5987 18.8436V25.4364C63.4125 25.4736 63.1964 25.496 62.9655 25.5109C62.7346 25.5258 62.5185 25.5332 62.3323 25.5332C62.146 25.5332 61.93 25.5258 61.6991 25.5109C61.4681 25.496 61.2447 25.4662 61.0361 25.4364V12.1688H61.0584Z" fill="#4C4C4D"/>
<path d="M46.0623 4.36192H43.5593L45.3323 2.58892C45.1907 2.39524 45.0343 2.209 44.8704 2.03766C44.6991 1.86632 44.5203 1.70988 44.3191 1.57579L42.5462 3.34878V0.845729C42.3152 0.808481 42.0768 0.786133 41.831 0.786133H41.8235C41.5777 0.786133 41.3393 0.808481 41.1084 0.845729V3.34878L39.3354 1.57579C39.1417 1.71733 38.9555 1.87377 38.7841 2.03766C38.6128 2.209 38.4638 2.38779 38.3223 2.58892L40.1027 4.36192H37.5997C37.5997 4.36192 37.5401 4.83124 37.5401 5.07707C37.5401 5.32291 37.5624 5.56129 37.5997 5.79223H40.1027L38.3297 7.56522C38.6053 7.9526 38.948 8.29528 39.3428 8.57836L41.1158 6.80537V9.30842C41.3468 9.34566 41.5852 9.36801 41.831 9.36801H41.8384C42.0843 9.36801 42.3227 9.34566 42.5536 9.30842V6.80537L44.3266 8.57836C44.5203 8.43682 44.7065 8.28038 44.8779 8.11649C45.0492 7.94515 45.2056 7.76636 45.3397 7.56522L43.5667 5.79223H46.0698C46.107 5.56129 46.1294 5.32291 46.1294 5.07707V5.06962C46.1219 4.83124 46.107 4.59285 46.0623 4.36192ZM42.9037 5.08452C42.9037 5.40485 42.8441 5.71029 42.7398 5.99337C42.4568 6.09766 42.1513 6.15726 41.831 6.15726C41.5107 6.15726 41.2052 6.09766 40.9221 5.99337C40.8179 5.71029 40.7583 5.40485 40.7583 5.08452V5.07707C40.7583 4.75674 40.8179 4.45131 40.9221 4.16823C41.2052 4.06393 41.5107 4.00434 41.831 4.00434C42.1513 4.00434 42.4568 4.06393 42.7398 4.16823C42.8441 4.45131 42.9037 4.75674 42.9037 5.08452Z" fill="#4C4C4D"/>
</g>
<defs>
<clipPath id="clip0_7_5647">
<rect width="68" height="34" fill="white" transform="translate(0.642578)"/>
</clipPath>
</defs>
</svg>
