<svg width="100" height="34" viewBox="0 0 100 34" fill="none" xmlns="http://www.w3.org/2000/svg">
<g clip-path="url(#clip0_7_5651)">
<path d="M15.2718 2.18066C7.05655 2.18066 0.396484 8.84054 0.396484 17.0558C0.396484 25.2713 7.05655 31.9307 15.2718 31.9307C23.4879 31.9307 30.1472 25.2713 30.1472 17.0558C30.1472 8.84108 23.4879 2.18137 15.2716 2.18137L15.2718 2.18066ZM22.0935 23.6348C21.827 24.0718 21.2551 24.2103 20.8181 23.9421C17.3255 21.8088 12.9288 21.3256 7.7509 22.5086C7.25194 22.6223 6.75458 22.3097 6.64089 21.8106C6.52668 21.3114 6.83806 20.814 7.33827 20.7004C13.0047 19.4058 17.8652 19.9632 21.7862 22.3594C22.2231 22.6276 22.3617 23.1978 22.0935 23.6348ZM23.9142 19.5845C23.5785 20.1302 22.8644 20.3025 22.3191 19.9668C18.3206 17.5091 12.2256 16.7973 7.49618 18.2329C6.88283 18.4182 6.23501 18.0725 6.04885 17.4602C5.86412 16.8469 6.20996 16.2003 6.82225 16.0138C12.2245 14.3746 18.9405 15.1686 23.5323 17.9903C24.0776 18.326 24.2499 19.0401 23.9142 19.5847V19.5845ZM24.0705 15.3668C19.2763 12.5193 11.3664 12.2574 6.78904 13.6467C6.054 13.8696 5.27669 13.4547 5.05395 12.7196C4.8312 11.9842 5.24579 11.2075 5.98135 10.984C11.2358 9.38889 19.9708 9.69708 25.4905 12.9738C26.153 13.3662 26.3697 14.2201 25.9772 14.8803C25.5864 15.5415 24.7302 15.7594 24.0712 15.3668H24.0705ZM40.8672 15.9125C38.2987 15.3001 37.8422 14.8702 37.8422 13.9669C37.8422 13.1136 38.645 12.5393 39.8405 12.5393C40.9986 12.5393 42.1461 12.9754 43.3505 13.8732C43.386 13.9003 43.4322 13.9112 43.4766 13.9041C43.5228 13.8973 43.5618 13.8726 43.5885 13.8355L44.8426 12.0677C44.8941 11.9949 44.8799 11.8945 44.8106 11.8389C43.3771 10.6891 41.7642 10.1301 39.8778 10.1301C37.105 10.1301 35.167 11.7944 35.167 14.1755C35.167 16.7289 36.8385 17.633 39.7268 18.331C42.1834 18.8971 42.5991 19.3713 42.5991 20.219C42.5991 21.1586 41.7607 21.7431 40.4107 21.7431C38.9115 21.7431 37.6876 21.2368 36.3199 20.0538C36.2861 20.0236 36.2399 20.0112 36.1973 20.0129C36.1511 20.0165 36.1103 20.0378 36.0818 20.0716L34.675 21.7448C34.6164 21.8159 34.6235 21.9189 34.691 21.9793C36.2826 23.4003 38.24 24.1499 40.3538 24.1499C43.3416 24.1499 45.2724 22.5175 45.2724 19.9898C45.2778 17.857 44.0006 16.6758 40.8725 15.9148L40.8672 15.9125ZM52.033 13.3795C50.7381 13.3795 49.6759 13.8897 48.7984 14.935V13.7584C48.7984 13.6655 48.7238 13.5898 48.6314 13.5898H46.3311C46.2387 13.5898 46.1641 13.6655 46.1641 13.7584V26.8322C46.1641 26.9245 46.2387 27.0009 46.3311 27.0009H48.6314C48.7238 27.0009 48.7984 26.9245 48.7984 26.8322V22.7058C49.6759 23.6881 50.7381 24.1695 52.033 24.1695C54.4399 24.1695 56.877 22.3168 56.877 18.775C56.8806 15.2326 54.4435 13.3793 52.0348 13.3793L52.033 13.3795ZM54.2019 18.775C54.2019 20.5778 53.0917 21.8372 51.5001 21.8372C49.9281 21.8372 48.7415 20.521 48.7415 18.775C48.7415 17.0289 49.9281 15.713 51.5001 15.713C53.0651 15.7129 54.2019 17.0003 54.2019 18.7749V18.775ZM63.1207 13.3795C60.0211 13.3795 57.5928 15.7662 57.5928 18.8136C57.5928 21.8283 60.0051 24.189 63.0834 24.189C66.1937 24.189 68.629 21.8106 68.629 18.775C68.629 15.7498 66.2097 13.3799 63.1207 13.3799V13.3795ZM63.1207 21.855C61.4723 21.855 60.2289 20.5298 60.2289 18.7741C60.2289 17.0105 61.4297 15.7306 63.0834 15.7306C64.7425 15.7306 65.993 17.0552 65.993 18.8127C65.993 20.576 64.7851 21.855 63.1207 21.855ZM75.2475 13.5898H72.7163V11.0025C72.7163 10.9098 72.6417 10.8341 72.5493 10.8341H70.249C70.1566 10.8341 70.0802 10.9098 70.0802 11.0025V13.5898H68.9754C68.883 13.5898 68.8084 13.6655 68.8084 13.7584V15.7349C68.8084 15.8276 68.883 15.9035 68.9754 15.9035H70.0802V21.0183C70.0802 23.0842 71.1087 24.1322 73.139 24.1322C73.9632 24.1322 74.6471 23.9616 75.2919 23.5957C75.3452 23.5673 75.3772 23.5105 75.3772 23.4501V21.5672C75.3772 21.5104 75.347 21.4553 75.2972 21.4251C75.2475 21.3931 75.1853 21.3913 75.1338 21.418C74.6915 21.64 74.2634 21.7431 73.7838 21.7431C73.0467 21.7431 72.7163 21.4073 72.7163 20.6577V15.9044H75.2475C75.3399 15.9044 75.4145 15.8287 75.4145 15.7358V13.7595C75.418 13.6666 75.3434 13.5909 75.2493 13.5909L75.2475 13.5898ZM84.0651 13.6V13.2822C84.0651 12.3473 84.4239 11.9304 85.2268 11.9304C85.7064 11.9304 86.0918 12.0256 86.5235 12.1695C86.5768 12.1862 86.6318 12.1779 86.6745 12.1461C86.7189 12.1143 86.7437 12.0633 86.7437 12.0093V10.0713C86.7437 9.99727 86.6975 9.93173 86.6247 9.90988C86.17 9.77434 85.5874 9.63526 84.7134 9.63526C82.5907 9.63526 81.4663 10.8314 81.4663 13.0932V13.5799H80.3615C80.2691 13.5799 80.1927 13.6556 80.1927 13.7483V15.7349C80.1927 15.8276 80.2691 15.9035 80.3615 15.9035H81.4663V23.7911C81.4663 23.8853 81.5427 23.9599 81.6351 23.9599H83.9336C84.0278 23.9599 84.1024 23.8853 84.1024 23.7911V15.904H86.2499L89.5396 23.7911C89.1666 24.6189 88.7989 24.7841 88.298 24.7841C87.893 24.7841 87.4649 24.6633 87.0297 24.4235C86.9889 24.4022 86.9391 24.3986 86.8965 24.4111C86.8521 24.427 86.8148 24.459 86.797 24.5016L86.0172 26.2122C85.9799 26.2939 86.0119 26.3881 86.09 26.4307C86.9036 26.8712 87.6372 27.0595 88.5449 27.0595C90.243 27.0595 91.1827 26.2673 92.0087 24.1393L95.9983 13.8302C96.0196 13.7783 96.0125 13.7197 95.9805 13.6737C95.9503 13.628 95.8988 13.6005 95.8437 13.6005H93.4493C93.3764 13.6005 93.3125 13.6461 93.2894 13.7135L90.8363 20.7181L88.1506 13.7088C88.1257 13.6437 88.0635 13.6005 87.9942 13.6005H84.0651V13.6ZM78.9529 13.5898H76.6526C76.5602 13.5898 76.4838 13.6655 76.4838 13.7584V23.7911C76.4838 23.8853 76.5602 23.9599 76.6526 23.9599H78.9529C79.0452 23.9599 79.1216 23.8853 79.1216 23.7911V13.7591C79.1216 13.6662 79.047 13.5905 78.9529 13.5905V13.5898ZM77.816 9.02137C76.9048 9.02137 76.1659 9.75889 76.1659 10.67C76.1659 11.5816 76.9048 12.32 77.816 12.32C78.7273 12.32 79.4644 11.5816 79.4644 10.67C79.4644 9.75907 78.7255 9.02137 77.816 9.02137ZM97.9628 16.8158C97.0534 16.8158 96.3446 16.0848 96.3446 15.1972C96.3446 14.3096 97.0623 13.5703 97.9717 13.5703C98.8812 13.5703 99.5899 14.3011 99.5899 15.188C99.5899 16.0756 98.8723 16.8158 97.9628 16.8158ZM97.9717 13.7312C97.1422 13.7312 96.5152 14.3902 96.5152 15.1972C96.5152 16.0038 97.1386 16.654 97.9628 16.654C98.7924 16.654 99.4194 15.9955 99.4194 15.188C99.4194 14.3814 98.7959 13.7312 97.9717 13.7312ZM98.3305 15.3544L98.7888 15.9953H98.4016L97.9895 15.4073H97.636V15.9953H97.3127V14.2964H98.0694C98.4655 14.2964 98.7249 14.4984 98.7249 14.8384C98.7267 15.1169 98.565 15.2871 98.3323 15.3544H98.3305ZM98.057 14.5879H97.636V15.1253H98.057C98.2666 15.1253 98.3927 15.0224 98.3927 14.8563C98.3927 14.6816 98.2666 14.5879 98.057 14.5879Z" fill="#4C4C4D"/>
</g>
<defs>
<clipPath id="clip0_7_5651">
<rect width="99.1667" height="34" fill="white" transform="translate(0.34375)"/>
</clipPath>
</defs>
</svg>
