<svg width="70" height="34" viewBox="0 0 70 34" fill="none" xmlns="http://www.w3.org/2000/svg">
<g clip-path="url(#clip0_7_5655)">
<path fill-rule="evenodd" clip-rule="evenodd" d="M56.9652 14.591C57.2302 15.0483 57.3169 15.5686 57.3456 16.1536L57.3832 16.9333V22.3851L57.4217 23.1656C57.4986 24.4402 58.4386 25.3827 59.723 25.4629L60.4994 25.5013V16.9333L60.5378 16.1536C60.5697 15.5752 60.6556 15.0451 60.9248 14.5845C61.1991 14.112 61.5928 13.7201 62.0665 13.4479C62.5401 13.1758 63.077 13.0331 63.6233 13.0341C64.1696 13.035 64.706 13.1797 65.1786 13.4536C65.6513 13.7275 66.0436 14.1209 66.3161 14.5943C66.5812 15.0516 66.6638 15.5817 66.6957 16.1536L66.7342 16.9308V22.3851L66.7726 23.1656C66.8528 24.4468 67.7855 25.3892 69.074 25.4629L69.8504 25.5013V16.1536C69.8504 14.5007 69.1939 12.9154 68.0253 11.7464C66.8568 10.5773 65.2718 9.92026 63.6188 9.91961C62.7341 9.91867 61.8594 10.1065 61.0532 10.4707C60.2469 10.8348 59.5276 11.3668 58.9433 12.0311C58.3588 11.3671 57.6395 10.8352 56.8333 10.471C56.0271 10.1067 55.1525 9.91848 54.2679 9.91879C52.9736 9.91879 51.7726 10.3115 50.7778 10.9897C50.1708 10.3123 48.8127 9.91879 48.0331 9.91879V25.5013L48.8127 25.4629C50.1168 25.377 51.0592 24.4599 51.11 23.1656L51.1517 22.3851V16.9333L51.1901 16.1536C51.2229 15.5654 51.3047 15.0483 51.5705 14.5877C51.845 14.1156 52.2386 13.7237 52.7119 13.4513C53.1852 13.1788 53.7217 13.0352 54.2679 13.035C54.8144 13.0351 55.3513 13.1789 55.8247 13.452C56.2982 13.7251 56.6915 14.1179 56.9652 14.591ZM3.62203 25.4637L4.40169 25.5013H16.0884L16.0499 24.7241C15.9444 23.4429 15.0371 22.507 13.7519 22.4236L12.9722 22.3851H5.96101L15.3087 13.0341L15.2703 12.2578C15.2097 10.9635 14.264 10.0284 12.9722 9.95724L12.1925 9.92206L0.505859 9.91879L0.54431 10.6984C0.646574 11.9673 1.56695 12.9229 2.84156 12.9965L3.62203 13.035H10.6332L1.28552 22.3859L1.32397 23.1656C1.40087 24.45 2.32779 25.3802 3.62203 25.4629V25.4637ZM44.9741 12.1997C45.6978 12.9231 46.2718 13.7821 46.6634 14.7274C47.055 15.6728 47.2566 16.686 47.2566 17.7092C47.2566 18.7325 47.055 19.7457 46.6634 20.691C46.2718 21.6364 45.6978 22.4953 44.9741 23.2188C43.5122 24.6796 41.5301 25.5001 39.4634 25.5001C37.3967 25.5001 35.4145 24.6796 33.9526 23.2188C30.91 20.1762 30.91 15.2422 33.9526 12.1997C34.6755 11.4764 35.5339 10.9027 36.4786 10.5112C37.4233 10.1197 38.4358 9.91813 39.4585 9.91797C40.4827 9.91726 41.4971 10.1185 42.4435 10.5101C43.39 10.9018 44.2499 11.4762 44.9741 12.2005V12.1997ZM42.7693 14.4061C43.6457 15.2831 44.138 16.4723 44.138 17.7121C44.138 18.9519 43.6457 20.141 42.7693 21.0181C41.8923 21.8944 40.7032 22.3867 39.4634 22.3867C38.2235 22.3867 37.0344 21.8944 36.1574 21.0181C35.281 20.141 34.7887 18.9519 34.7887 17.7121C34.7887 16.4723 35.281 15.2831 36.1574 14.4061C37.0344 13.5297 38.2235 13.0375 39.4634 13.0375C40.7032 13.0375 41.8923 13.5297 42.7693 14.4061ZM23.1061 9.91797C24.1288 9.91824 25.1414 10.1199 26.0861 10.5116C27.0308 10.9032 27.8891 11.4771 28.612 12.2005C31.6553 15.2422 31.6553 20.1771 28.612 23.2188C27.15 24.6796 25.1679 25.5001 23.1012 25.5001C21.0345 25.5001 19.0524 24.6796 17.5904 23.2188C14.5479 20.1762 14.5479 15.2422 17.5904 12.1997C18.3134 11.4764 19.1717 10.9027 20.1164 10.5112C21.0611 10.1197 22.0737 9.91813 23.0963 9.91797H23.1061ZM26.4072 14.4045C27.2838 15.2815 27.7762 16.4708 27.7762 17.7109C27.7762 18.9509 27.2838 20.1402 26.4072 21.0173C25.5301 21.8936 24.341 22.3859 23.1012 22.3859C21.8614 22.3859 20.6722 21.8936 19.7952 21.0173C18.9189 20.1402 18.4266 18.9511 18.4266 17.7113C18.4266 16.4714 18.9189 15.2823 19.7952 14.4053C20.6722 13.5289 21.8614 13.0366 23.1012 13.0366C24.341 13.0366 25.5301 13.5289 26.4072 14.4053V14.4045Z" fill="#4C4C4D"/>
</g>
<defs>
<clipPath id="clip0_7_5655">
<rect width="69.4166" height="34" fill="white" transform="translate(0.505859)"/>
</clipPath>
</defs>
</svg>
