<svg width="95" height="34" viewBox="0 0 95 34" fill="none" xmlns="http://www.w3.org/2000/svg">
<g clip-path="url(#clip0_7_5664)">
<path d="M11.0481 4.25H0.681641V29.0417L11.0481 4.25Z" fill="#4C4C4D"/>
<path d="M18.3418 4.25H28.6947V29.0417L18.3418 4.25Z" fill="#4C4C4D"/>
<path d="M14.6956 13.3877L21.2936 29.042H16.9647L14.9927 24.058H10.1641L14.6956 13.3877Z" fill="#4C4C4D"/>
<path d="M45.6077 20.0143L46.83 23.5194C46.8706 23.6071 46.9313 23.6477 47.0394 23.6477H49.3896C49.5179 23.6477 49.5382 23.5869 49.5179 23.4586L44.6622 9.97206C44.642 9.86401 44.6217 9.84375 44.5136 9.84375H41.5962C41.5151 9.84375 41.4679 9.90453 41.4679 9.99232C41.4273 10.7014 41.3666 10.9175 41.2788 11.1269L36.9498 23.4383C36.9296 23.5869 36.9769 23.6477 37.0984 23.6477H39.1987C39.327 23.6477 39.3878 23.6071 39.4351 23.4788L40.5899 20.0143H45.6077ZM41.2585 17.7249C41.8933 15.807 42.7307 13.3488 43.0684 11.9441H43.0887C43.5074 13.4163 44.4934 16.3338 44.9391 17.7249H41.2585Z" fill="#4C4C4D"/>
<path d="M55.7605 23.8566C57.0233 23.8566 58.3673 23.627 59.7315 23.0394C59.8395 22.9989 59.8598 22.9516 59.8598 22.8503C59.8192 22.4721 59.772 21.9251 59.772 21.5064V8.81004C59.772 8.729 59.772 8.68848 59.6707 8.68848H57.3813C57.2935 8.68848 57.253 8.729 57.253 8.83705V13.139C56.895 13.0984 56.6452 13.0782 56.348 13.0782C52.6539 13.0782 50.3848 15.5161 50.3848 18.5619C50.3848 22.0939 52.7147 23.8566 55.7605 23.8566ZM57.253 21.5064C56.8748 21.628 56.4561 21.6752 56.0306 21.6752C54.3558 21.6752 52.9848 20.7298 52.9848 18.4336C52.9848 16.4008 54.3963 15.1987 56.267 15.1987C56.6452 15.1987 56.9761 15.2393 57.253 15.3473V21.5064Z" fill="#4C4C4D"/>
<path d="M67.1622 13.0791C64.0084 13.0791 62.0566 15.4968 62.0566 18.4818C62.0566 21.1494 63.6099 23.8575 67.1149 23.8575C70.0797 23.8575 72.1597 21.6762 72.1597 18.4143C72.1597 15.5373 70.3971 13.0791 67.1622 13.0791ZM67.0339 15.1997C68.8168 15.1997 69.5732 16.7327 69.5732 18.4818C69.5732 20.6429 68.4588 21.7167 67.1622 21.7167C65.5616 21.7167 64.6162 20.3728 64.6162 18.4345C64.6162 16.4423 65.6224 15.1997 67.0339 15.1997Z" fill="#4C4C4D"/>
<path d="M74.5275 8.68848C74.4397 8.68848 74.3789 8.729 74.3789 8.83705V23.2082C74.3789 23.269 74.4397 23.3771 74.5275 23.3973C75.5337 23.708 76.5873 23.8566 77.6746 23.8566C80.7879 23.8566 83.8134 21.9251 83.8134 18.0352C83.8134 15.219 81.8819 13.0782 78.8564 13.0782C78.1608 13.0782 77.5125 13.1862 76.9452 13.3753L76.9182 8.85731C76.9182 8.70874 76.8776 8.68848 76.7291 8.68848H74.5275ZM81.2268 18.2918C81.2268 20.6217 79.633 21.7157 77.9109 21.7157C77.553 21.7157 77.2356 21.6955 76.9452 21.6077V15.4756C77.2761 15.3473 77.6746 15.2393 78.4107 15.2393C80.072 15.2393 81.2268 16.2928 81.2268 18.2918Z" fill="#4C4C4D"/>
<path d="M92.357 19.0491C93.3835 19.0491 94.2276 19.0288 94.518 18.9613C94.6261 18.941 94.6666 18.9005 94.6869 18.8127C94.7477 18.5831 94.7747 18.1036 94.7747 17.5161C94.7747 15.5171 93.5726 13.0791 90.466 13.0791C87.2919 13.0791 85.5293 15.6656 85.5293 18.5831C85.5293 21.1697 86.8935 23.8575 90.7159 23.8575C92.1476 23.8575 93.0728 23.6279 93.8697 23.2497C93.9508 23.2092 93.9913 23.1416 93.9913 23.0201V21.271C93.9913 21.1697 93.9305 21.1494 93.8697 21.1899C93.0728 21.5276 92.2084 21.6964 91.2629 21.6964C89.1221 21.6964 88.1496 20.5146 88.0888 19.0491H92.357ZM88.0888 17.2392C88.2577 16.2127 88.906 15.0984 90.358 15.0984C91.9585 15.0984 92.3772 16.4423 92.3772 17.0501C92.3772 17.0703 92.3772 17.1581 92.3772 17.2189C92.2894 17.2392 92.0193 17.2392 91.2224 17.2392H88.0888Z" fill="#4C4C4D"/>
</g>
<defs>
<clipPath id="clip0_7_5664">
<rect width="94.2083" height="34" fill="white" transform="translate(0.681641)"/>
</clipPath>
</defs>
</svg>
