<svg width="92" height="34" viewBox="0 0 92 34" fill="none" xmlns="http://www.w3.org/2000/svg">
<g clip-path="url(#clip0_7_5675)">
<path d="M32.2122 24.6319V14.3221H32.3959L39.9004 24.6319H42.262V9.49177H39.6381V19.7756H39.4544L31.9498 9.49177H29.5882V24.6319H32.2122ZM49.6879 24.8656C53.1515 24.8656 55.2769 22.6323 55.2769 18.8927C55.2769 15.1791 53.1515 12.9197 49.6879 12.9197C46.2505 12.9197 44.0988 15.1791 44.0988 18.8927C44.125 22.6323 46.2242 24.8656 49.6879 24.8656ZM49.6879 22.6842C47.8511 22.6842 46.8015 21.3078 46.8015 18.8927C46.8015 16.5035 47.8511 15.1011 49.6879 15.1011C51.5246 15.1011 52.5742 16.5035 52.5742 18.8927C52.5742 21.3078 51.5246 22.6842 49.6879 22.6842ZM57.6647 10.3488V13.2314H55.8279V15.3089H57.6647V21.5675C57.6647 23.8009 58.7143 24.6838 61.3908 24.6838C61.8893 24.6838 62.3879 24.6319 62.7815 24.554V22.5284C62.4666 22.5544 62.2567 22.5803 61.8893 22.5803C60.7872 22.5803 60.2887 22.0869 60.2887 20.9443V15.3089H62.7815V13.2314H60.2887V10.3488H57.6647ZM64.3559 24.6319H66.9798V13.1534H64.3559V24.6319ZM65.6678 11.2577C66.5337 11.2577 67.2422 10.5565 67.2422 9.69952C67.2422 8.81657 66.5337 8.1154 65.6678 8.1154C64.8019 8.1154 64.0935 8.81657 64.0935 9.69952C64.0935 10.5565 64.8019 11.2577 65.6678 11.2577ZM74.1695 24.8656C77.6331 24.8656 79.7586 22.6323 79.7586 18.8927C79.7586 15.1791 77.6331 12.9197 74.1695 12.9197C70.7321 12.9197 68.5804 15.1791 68.5804 18.8927C68.5804 22.6323 70.6796 24.8656 74.1695 24.8656ZM74.1695 22.6842C72.3327 22.6842 71.2831 21.3078 71.2831 18.8927C71.2831 16.5035 72.3327 15.1011 74.1695 15.1011C75.98 15.1011 77.0559 16.5035 77.0559 18.8927C77.0296 21.3078 75.98 22.6842 74.1695 22.6842ZM81.3067 24.6319H83.9307V17.9578C83.9307 16.2698 84.9278 15.205 86.4759 15.205C88.0765 15.205 88.8112 16.088 88.8112 17.8279V24.6319H91.4352V17.2047C91.4352 14.4519 90.0183 12.9197 87.4468 12.9197C85.715 12.9197 84.5604 13.6988 84.0094 14.9973H83.8257V13.1534H81.2805C81.3067 13.1534 81.3067 24.6319 81.3067 24.6319Z" fill="#4C4C4D"/>
<path fill-rule="evenodd" clip-rule="evenodd" d="M4.42885 8.52274C5.19256 9.13884 5.4688 9.0902 6.89872 8.99292L20.3693 8.18226C20.6618 8.18226 20.418 7.89041 20.3205 7.85799L18.0781 6.25287C17.6557 5.9286 17.0707 5.53948 15.982 5.63676L2.95018 6.59335C2.47895 6.64199 2.38146 6.88519 2.57645 7.06353L4.42885 8.52274ZM5.24131 11.6519V25.79C5.24131 26.552 5.61504 26.8276 6.47625 26.779L21.2792 25.9197C22.1404 25.871 22.2379 25.3522 22.2379 24.7361V10.6953C22.2379 10.0792 21.9942 9.73874 21.4742 9.78738L6.00502 10.6953C5.4363 10.744 5.24131 11.0358 5.24131 11.6519ZM19.8493 12.4139C19.9468 12.8355 19.8493 13.2732 19.4268 13.3219L18.7119 13.4678V23.9092C18.0944 24.2335 17.5257 24.428 17.0382 24.428C16.2745 24.428 16.0795 24.1848 15.5108 23.4715L10.8473 16.1592V23.2283L12.3259 23.5525C12.3259 23.5525 12.3259 24.4118 11.1398 24.4118L7.85742 24.6064C7.75993 24.4118 7.85742 23.9416 8.18241 23.8444L9.04361 23.6012V14.2623L7.85742 14.165C7.75993 13.7434 8.00367 13.1273 8.66988 13.0787L12.1959 12.8355L17.0544 20.2288V13.6948L15.8195 13.5489C15.722 13.0301 16.112 12.6409 16.5832 12.5923L19.8493 12.4139ZM1.86149 5.29628L15.4295 4.30726C17.0869 4.16134 17.5257 4.25862 18.5656 5.02065L22.8879 8.05255C23.6028 8.57138 23.8466 8.7173 23.8466 9.28476V25.9359C23.8466 26.9735 23.4729 27.5896 22.1404 27.6869L6.395 28.6435C5.38755 28.6922 4.91633 28.5462 4.39635 27.8815L1.19527 23.7471C0.62655 22.9851 0.382812 22.4176 0.382812 21.7528V6.95004C0.382812 6.09073 0.772792 5.39356 1.86149 5.29628Z" fill="#4C4C4D"/>
</g>
<defs>
<clipPath id="clip0_7_5675">
<rect width="91.375" height="34" fill="white" transform="translate(0.382812)"/>
</clipPath>
</defs>
</svg>
