<svg width="79" height="34" viewBox="0 0 79 34" fill="none" xmlns="http://www.w3.org/2000/svg">
<g clip-path="url(#clip0_7_5679)">
<path d="M10.8567 26.9623C9.67385 27.17 8.47022 27.2323 7.22513 27.3982L3.42744 16.2752V27.8755C2.24462 28 1.16554 28.166 0.0449219 28.332V7.08203H3.1993L7.51562 19.1391V7.08203H10.8567V26.9623ZM17.3936 14.864C18.6803 14.864 20.6517 14.8017 21.8345 14.8017V18.122C20.361 18.122 18.6387 18.122 17.3936 18.1843V23.1233C19.3443 22.9988 21.295 22.8327 23.2663 22.7704V25.966L14.0732 26.6925V7.08203H23.2663V10.4023H17.3936V14.864ZM35.6137 10.4024H32.1689V25.6758C31.0483 25.6758 29.9277 25.6758 28.8488 25.7172V10.4024H25.404V7.08203H35.6139L35.6137 10.4024ZM41.0092 14.6358H45.554V17.956H41.0092V25.4891H37.7509V7.08203H47.0273V10.4023H41.0092V14.6358ZM52.4228 22.5837C54.3113 22.6251 56.2203 22.7706 58.0674 22.8742V26.1531C55.0999 25.9662 52.1323 25.7797 49.1026 25.7172V7.08203H52.4228V22.5837ZM60.8688 26.3813C61.9272 26.4437 63.0478 26.506 64.1269 26.6303V7.08203H60.8688V26.3813ZM78.6741 7.08203L74.4614 17.1883L78.6741 28.332C77.4289 28.166 76.1838 27.9377 74.9386 27.7302L72.5523 21.5877L70.1245 27.2323C68.9206 27.0246 67.7586 26.9623 66.5552 26.7963L70.83 17.0636L66.97 7.08203H70.5392L72.7182 12.6643L75.0425 7.08203H78.6741V7.08203Z" fill="#4C4C4D"/>
</g>
<defs>
<clipPath id="clip0_7_5679">
<rect width="78.625" height="34" fill="white" transform="translate(0.0449219)"/>
</clipPath>
</defs>
</svg>
