<svg width="24" height="25" viewBox="0 0 24 25" fill="none" xmlns="http://www.w3.org/2000/svg">
<path fill-rule="evenodd" clip-rule="evenodd" d="M3.59961 12.5002C3.59961 12.0031 4.00255 11.6002 4.49961 11.6002L17.2651 11.6002L12.2758 6.84894C11.9175 6.50443 11.9063 5.93469 12.2509 5.5764C12.5954 5.2181 13.1651 5.20693 13.5234 5.55144L20.1234 11.8514C20.2999 12.0211 20.3996 12.2554 20.3996 12.5002C20.3996 12.745 20.2999 12.9793 20.1234 13.1489L13.5234 19.4489C13.1651 19.7935 12.5954 19.7823 12.2509 19.424C11.9063 19.0657 11.9175 18.496 12.2758 18.1514L17.2651 13.4002L4.49961 13.4002C4.00255 13.4002 3.59961 12.9973 3.59961 12.5002Z" fill="white"/>
</svg>
