<svg width="40" height="43" viewBox="0 0 40 43" fill="none" xmlns="http://www.w3.org/2000/svg">
<path fill-rule="evenodd" clip-rule="evenodd" d="M13.5489 40.1279C9.82492 39.0762 5.92609 38.5457 2.14397 38.0597C1.32936 37.9578 0.573044 38.5264 0.514858 39.3274C0.398485 40.129 0.980691 40.8622 1.73712 40.9641C5.40286 41.4319 9.18465 41.9326 12.734 42.945C13.4904 43.1646 14.3054 42.7126 14.5381 41.9349C14.7709 41.1579 14.3053 40.348 13.5489 40.1279Z" fill="#262626"/>
<path fill-rule="evenodd" clip-rule="evenodd" d="M24.8375 25.2168C18.8443 19.0619 12.0947 13.6993 6.21783 7.3793C5.69415 6.78905 4.76317 6.75743 4.1813 7.30845C3.59944 7.86005 3.54148 8.78758 4.12334 9.37783C10.0002 15.716 16.7498 21.0961 22.743 27.2692C23.3249 27.8454 24.2556 27.8535 24.8375 27.2867C25.3612 26.7205 25.4194 25.793 24.8375 25.2168Z" fill="#262626"/>
<path fill-rule="evenodd" clip-rule="evenodd" d="M36.0681 1.54341C36.2427 5.06616 36.4169 8.58891 36.5915 12.1123C36.5915 12.9192 37.2901 13.5422 38.1047 13.503C38.9193 13.4631 39.5008 12.7763 39.5008 11.9688C39.3262 8.44018 39.152 4.91216 38.9775 1.38413C38.9193 0.577224 38.2209 -0.0417174 37.4063 0.00219986C36.6499 0.0461172 36.0099 0.737085 36.0681 1.54341Z" fill="#262626"/>
</svg>
